<?xml version="1.0" standalone="no"?>
<!DOCTYPE svg PUBLIC "-//W3C//DTD SVG 20010904//EN"
 "http://www.w3.org/TR/2001/REC-SVG-20010904/DTD/svg10.dtd">
<svg version="1.0" xmlns="http://www.w3.org/2000/svg"
  viewBox="0 0 1286.000000 1447.000000"
 preserveAspectRatio="xMidYMid meet">

<g transform="translate(0.000000,1447.000000) scale(0.100000,-0.100000)"
fill="#000000" stroke="none">
<path d="M5684 12161 c-58 -15 -124 -53 -178 -102 -43 -39 -65 -72 -106 -157
-114 -234 -138 -333 -150 -622 -6 -123 -15 -231 -25 -269 -10 -41 -12 -68 -6
-75 5 -6 15 -110 21 -230 11 -214 6 -386 -11 -386 -5 0 -9 4 -9 9 0 5 -9 11
-20 14 -12 3 -20 14 -20 26 0 12 -7 24 -15 27 -8 3 -32 23 -53 44 -48 48 -107
66 -160 49 -48 -16 -173 -141 -239 -239 -82 -122 -130 -228 -212 -473 -43
-128 -102 -295 -131 -372 -149 -396 -247 -785 -345 -1371 -30 -177 -74 -413
-99 -525 -25 -112 -52 -256 -61 -319 -8 -63 -31 -203 -51 -310 -47 -258 -49
-273 -31 -288 18 -16 44 -6 52 19 4 11 11 17 16 14 15 -10 10 -57 -17 -150
-40 -139 -65 -284 -58 -335 8 -65 35 -114 62 -118 34 -5 49 13 64 76 10 48 13
53 19 32 4 -14 7 -41 8 -60 2 -61 20 -110 41 -110 12 0 21 -10 25 -30 10 -46
42 -80 75 -80 36 0 54 25 70 95 19 82 19 82 42 44 24 -40 35 -49 65 -49 16 0
30 13 50 48 25 42 28 56 28 138 l0 92 34 18 c19 11 42 30 52 44 23 32 39 130
39 243 0 60 5 95 15 110 8 12 14 31 14 42 1 11 1 153 0 315 0 345 12 573 47
905 34 328 49 422 83 529 60 186 119 499 151 786 24 225 72 582 100 751 25
143 25 145 0 166 -14 12 -16 20 -9 29 7 9 0 23 -26 52 l-35 40 27 33 c65 82
85 99 105 88 10 -5 18 -20 18 -33 0 -13 7 -26 15 -30 8 -3 15 -16 15 -28 0
-13 7 -36 15 -52 14 -26 13 -39 -9 -145 -14 -64 -37 -186 -51 -271 -14 -85
-42 -236 -61 -335 -44 -228 -62 -378 -69 -596 -4 -96 -17 -266 -31 -379 -36
-310 -46 -503 -43 -768 4 -223 3 -241 -13 -246 -24 -6 -23 -36 1 -36 16 0 20
-10 25 -62 3 -35 13 -137 21 -228 9 -91 18 -247 22 -347 9 -259 -6 -310 -152
-550 -79 -127 -188 -285 -232 -334 -22 -24 -46 -39 -69 -44 -20 -3 -73 -19
-118 -34 -130 -44 -195 -54 -303 -48 -54 3 -115 10 -135 17 -61 18 -120 70
-140 121 -70 191 -76 568 -13 867 36 170 102 392 126 422 55 69 64 107 63 250
-2 203 -47 354 -148 495 -20 27 -32 53 -28 57 4 4 65 22 136 40 103 25 132 29
147 20 25 -16 48 -15 55 3 3 8 14 17 25 20 29 9 25 53 -6 67 -17 8 -28 8 -37
0 -8 -6 -59 -20 -114 -31 -110 -23 -264 -65 -304 -84 -39 -19 -34 -58 12 -79
62 -29 138 -163 171 -298 42 -175 45 -295 6 -344 -40 -51 -132 -347 -176 -566
-57 -286 -44 -717 26 -875 24 -53 75 -102 136 -131 87 -40 261 -53 381 -28 31
6 31 5 37 -41 9 -62 -19 -197 -84 -413 -64 -212 -108 -322 -169 -423 -74 -122
-87 -179 -41 -179 28 0 277 -128 364 -187 39 -27 91 -63 115 -79 l43 -29 -6
-70 c-7 -87 -48 -290 -74 -369 -14 -42 -17 -65 -10 -78 12 -23 46 -23 57 0 14
26 69 267 82 357 18 125 18 125 44 125 54 0 90 101 39 108 -15 2 -27 -5 -38
-25 -15 -27 -16 -23 -9 77 4 58 10 290 14 515 4 226 9 421 11 435 3 19 -1 26
-17 28 -47 7 -49 -8 -55 -392 -6 -362 -17 -586 -28 -618 -5 -14 -23 -5 -111
53 -118 78 -318 179 -355 179 -14 0 -25 4 -25 8 0 5 25 50 55 100 67 111 102
198 165 407 72 241 93 338 94 443 1 102 -4 96 80 107 27 4 67 15 90 25 23 10
64 23 91 29 71 17 97 36 93 69 -2 22 -8 27 -30 25 -27 -2 -26 -1 26 70 79 107
203 308 246 400 59 123 73 211 66 392 -6 132 -27 413 -41 532 l-4 42 52 14
c57 16 235 63 282 75 25 7 30 13 28 37 -4 80 -17 162 -30 181 -17 27 -39 174
-52 355 -6 79 -13 171 -16 203 -5 58 -5 59 15 41 11 -10 28 -15 39 -12 12 3
62 -8 113 -25 96 -31 523 -133 701 -167 167 -32 295 -42 404 -31 88 9 230 38
276 55 16 7 17 -26 17 -596 0 -332 5 -685 10 -784 15 -265 101 -834 160 -1056
17 -63 55 -215 85 -339 100 -406 149 -550 280 -809 l66 -132 -58 -72 c-32 -40
-84 -109 -115 -153 -32 -45 -76 -98 -98 -118 -122 -110 -318 -198 -591 -265
-135 -33 -391 -66 -433 -55 -16 4 -32 1 -42 -7 -22 -18 -160 -39 -173 -26 -7
7 -19 6 -38 -4 -21 -11 -73 -14 -257 -12 -127 1 -260 7 -296 13 -36 5 -85 12
-111 14 -25 2 -81 13 -125 24 -96 25 -423 139 -440 153 -21 17 -59 7 -62 -18
-2 -16 5 -26 25 -36 54 -28 429 -155 509 -173 l80 -18 13 -166 c7 -91 18 -205
25 -255 l12 -90 -43 -46 c-58 -65 -61 -93 -25 -225 42 -152 59 -246 73 -419 9
-105 19 -164 32 -195 17 -39 20 -69 21 -220 l1 -175 54 -155 c29 -85 61 -171
72 -191 25 -51 83 -99 118 -99 52 0 47 38 -11 73 -37 23 -55 62 -119 247 -50
147 -53 161 -57 276 -4 119 -4 121 18 127 20 5 22 10 16 47 -9 60 9 41 29 -28
9 -31 43 -133 76 -227 152 -428 149 -418 134 -436 -8 -8 -36 -78 -61 -155 -76
-232 -102 -266 -282 -374 -64 -38 -125 -76 -136 -84 -11 -9 -29 -13 -47 -9
-25 5 -30 1 -54 -47 -95 -187 -83 -468 24 -583 56 -62 115 -72 301 -57 159 14
228 34 335 96 183 107 230 173 256 362 13 92 49 165 99 198 19 13 67 30 105
38 123 26 164 50 191 113 21 49 17 74 -21 146 -34 63 -35 70 -36 174 -1 139
-28 312 -52 327 -23 15 -49 -2 -59 -40 -9 -31 4 -174 27 -306 15 -85 9 -151
-20 -194 -9 -13 -47 -34 -100 -53 -47 -17 -102 -39 -123 -50 -47 -24 -131
-113 -205 -218 -97 -137 -354 -403 -390 -403 -5 0 -21 8 -35 19 -15 10 -58 35
-97 54 -116 59 -175 129 -175 208 0 79 65 146 249 254 62 37 131 83 152 103
56 50 103 140 153 294 28 87 49 134 59 136 8 2 29 -16 48 -42 44 -62 95 -81
190 -72 76 7 100 16 139 51 14 13 34 25 45 27 14 2 21 12 23 33 1 17 12 70 24
119 23 95 19 122 -20 120 -17 0 -21 8 -27 60 -3 34 -19 156 -35 271 -16 116
-36 289 -44 385 -9 96 -19 195 -22 220 l-6 45 139 73 c233 123 447 300 590
489 125 164 342 508 379 601 32 80 39 90 65 96 35 7 41 45 9 53 -26 7 -25 17
4 36 13 9 59 65 102 124 43 59 96 129 117 155 l40 47 37 -62 c29 -48 43 -62
61 -62 34 0 36 34 5 83 -43 69 -207 403 -251 512 -57 143 -78 214 -190 655
-73 291 -106 444 -140 650 -76 465 -77 478 -82 947 l-5 426 43 -5 c28 -3 50
-13 61 -27 16 -20 23 -21 290 -21 318 0 366 8 429 75 47 49 53 75 26 100 -30
29 -49 25 -76 -16 -13 -19 -36 -44 -51 -54 -96 -68 -144 112 -205 760 -27 286
-44 709 -45 1084 l0 219 37 31 c83 69 527 527 711 735 91 102 108 116 135 116
25 0 33 5 35 22 2 13 -4 27 -16 34 -18 11 -16 18 44 138 35 69 86 188 114 264
78 210 79 316 3 345 -17 7 -141 13 -308 15 -223 4 -304 9 -400 25 -66 12 -181
28 -255 37 -134 17 -134 17 -151 -4 -10 -12 -19 -25 -21 -30 -2 -7 -183 17
-412 56 l-50 8 -13 55 c-34 135 -35 151 -17 185 37 69 -7 285 -80 393 -42 63
-107 102 -182 108 -32 3 -86 14 -119 25 -54 17 -75 18 -180 10 -101 -7 -125
-6 -150 7 -34 17 -163 25 -211 13z m201 -81 c19 -12 40 -30 45 -40 10 -18 7
-18 -47 1 -61 22 -201 31 -258 16 l-30 -7 30 17 c86 48 195 53 260 13z m363
-69 c34 -18 57 -39 91 -84 8 -10 -10 -2 -39 18 -44 29 -61 35 -106 35 -64 0
-115 -19 -137 -50 l-15 -22 -7 22 c-10 31 13 70 50 86 44 19 120 17 163 -5z
m228 -53 c25 -39 67 -156 78 -217 l6 -34 -23 34 c-12 19 -32 35 -44 37 -18 3
-21 12 -25 72 -4 52 -13 82 -37 125 l-32 56 27 -17 c14 -10 37 -35 50 -56z
m-776 37 c-19 -7 -43 -14 -53 -14 -32 -2 -74 -39 -116 -104 -44 -67 -53 -70
-21 -7 30 59 84 108 138 124 60 19 100 19 52 1z m165 -64 c22 -10 51 -29 65
-43 14 -14 33 -29 43 -35 15 -8 5 -18 -69 -63 -106 -64 -198 -155 -242 -238
-26 -49 -38 -62 -56 -62 -13 0 -28 -6 -34 -12 -27 -33 -79 -313 -67 -361 6
-24 -75 -334 -96 -367 -13 -19 -3 388 12 478 10 64 200 521 237 572 11 14 31
26 45 28 32 4 41 26 20 48 -24 23 -72 11 -105 -28 -15 -17 -49 -80 -75 -140
-26 -59 -49 -104 -51 -100 -1 5 12 49 29 98 27 73 42 98 88 145 48 49 60 57
83 52 21 -4 29 -1 35 13 3 11 11 22 17 26 20 14 80 8 121 -11z m403 -40 c55
-41 57 -48 16 -56 -50 -9 -70 -59 -85 -208 -14 -147 -3 -237 52 -424 46 -155
46 -152 -17 -290 -78 -173 -190 -300 -288 -328 -71 -21 -110 -10 -161 46 -42
47 -154 268 -186 369 l-23 69 28 93 c38 126 89 255 126 317 71 122 156 215
225 248 19 9 35 20 35 24 0 5 12 19 26 33 19 17 25 31 21 45 -7 27 7 36 23 15
16 -19 110 -17 110 2 0 28 -14 44 -39 44 -25 1 -25 1 -7 15 34 25 98 19 144
-14z m96 -145 c13 -29 29 -57 35 -60 6 -4 11 -17 11 -29 0 -18 -6 -23 -27 -22
-37 0 -41 -18 -43 -230 -1 -99 -5 -189 -9 -199 -7 -18 -26 34 -61 173 -15 58
-15 237 0 324 12 65 20 77 68 96 1 1 13 -23 26 -53z m144 -108 c21 -67 46
-216 47 -282 l0 -40 255 -42 c140 -24 256 -43 257 -43 2 -1 -14 -35 -35 -77
l-37 -76 -95 6 c-261 17 -383 30 -396 44 -8 7 -14 25 -14 38 0 14 -4 23 -9 20
-5 -4 -17 17 -26 45 -11 33 -24 53 -36 56 -18 5 -19 16 -18 147 1 129 2 135
11 76 9 -67 21 -90 44 -90 12 0 14 23 12 118 -2 101 4 162 17 162 2 0 12 -28
23 -62z m-1151 -350 c-3 -7 -5 -2 -5 12 0 14 2 19 5 13 2 -7 2 -19 0 -25z
m1068 -170 c9 -40 19 -111 22 -158 5 -71 3 -92 -13 -120 l-18 -35 -13 70 c-6
39 -18 94 -24 123 -10 41 -10 66 1 122 7 39 17 70 21 70 4 0 15 -33 24 -72z
m468 -97 c81 -6 162 -17 180 -25 18 -7 95 -50 171 -94 77 -45 150 -82 163 -82
24 0 113 -40 113 -50 0 -3 -13 -19 -30 -35 -16 -16 -30 -39 -30 -51 0 -18 -27
-39 -142 -108 -167 -99 -308 -162 -559 -248 -124 -42 -184 -58 -187 -50 -2 7
-15 12 -28 12 -13 0 -24 5 -24 10 0 6 -9 10 -21 10 -24 0 -22 9 23 109 99 220
147 431 118 526 -6 22 -15 54 -19 70 l-8 31 66 -7 c36 -4 133 -12 214 -18z
m-1303 -176 c92 -218 187 -335 273 -335 15 0 39 -7 52 -16 23 -15 27 -15 72
12 100 57 234 217 296 351 l22 48 -1 -220 -1 -221 -60 -124 c-33 -69 -79 -150
-101 -180 -23 -30 -42 -60 -42 -67 0 -30 -245 -10 -281 23 -25 23 -54 14 -54
-16 0 -74 315 -115 460 -60 15 6 29 9 31 7 2 -2 -21 -45 -51 -96 -57 -97 -62
-110 -44 -128 7 -7 -7 -48 -50 -138 -34 -70 -61 -130 -61 -132 0 -2 9 1 19 7
11 5 29 10 41 10 17 0 31 21 74 113 29 61 75 168 101 237 47 121 83 191 105
205 7 4 10 -25 10 -87 0 -187 40 -353 85 -353 25 0 25 37 2 140 -24 101 -33
319 -15 368 29 83 37 55 63 -205 8 -89 31 -291 50 -448 49 -404 75 -741 90
-1160 l6 -165 -43 -27 c-58 -35 -121 -55 -231 -73 -116 -19 -215 -19 -338 0
-154 23 -683 141 -830 186 -100 30 -139 38 -155 30 -21 -9 -21 -8 -23 207 -2
229 14 749 28 892 6 67 16 103 48 170 21 47 59 132 83 190 52 122 71 145 83
99 4 -15 12 -20 29 -17 23 3 23 6 29 153 6 140 28 407 33 413 7 7 26 -210 26
-296 0 -111 -22 -217 -74 -350 -40 -104 -107 -241 -148 -300 -33 -48 -33 -75
-1 -80 31 -5 72 55 148 213 76 157 120 292 135 411 12 96 9 166 -21 399 -24
193 -24 191 6 199 28 7 34 40 11 53 -12 7 -10 22 14 93 16 47 34 105 40 129 6
23 13 41 14 40 2 -2 22 -49 46 -104z m884 -132 c-18 -81 -28 -113 -51 -166
-14 -31 -28 -56 -30 -54 -5 6 25 147 44 200 18 51 48 67 37 20z m56 -99 c-12
-36 -23 -64 -25 -62 -1 2 7 43 19 92 14 60 22 81 24 63 2 -15 -6 -57 -18 -93z
m-77 -180 c-26 -54 -49 -92 -50 -83 -2 8 12 41 30 72 19 31 40 70 47 87 7 17
14 29 16 27 3 -2 -17 -48 -43 -103z m-1247 -287 c-32 -163 -74 -321 -75 -285
-3 84 51 377 77 418 26 41 25 8 -2 -133z m1089 56 c-10 -58 -15 -71 -28 -76
-7 -3 -29 -13 -50 -22 -29 -12 -36 -13 -30 -2 11 18 107 137 111 137 2 0 0
-17 -3 -37z m-1481 -152 c-4 -19 -10 -29 -16 -23 -5 5 -4 20 2 37 14 36 22 28
14 -14z m13 -1608 c-3 -10 -5 -4 -5 12 0 17 2 24 5 18 2 -7 2 -21 0 -30z
m-667 -88 c-13 -58 -25 -104 -27 -101 -3 3 5 52 17 111 13 58 25 104 27 101 3
-3 -5 -52 -17 -111z m657 -2 c-3 -10 -5 -2 -5 17 0 19 2 27 5 18 2 -10 2 -26
0 -35z m-380 -675 c-2 -13 -4 -5 -4 17 -1 22 1 32 4 23 2 -10 2 -28 0 -40z
m653 -152 c0 -8 -15 -17 -36 -20 -19 -4 -43 -10 -51 -13 -30 -12 -3 17 30 31
42 19 57 19 57 2z m-276 -27 c-8 -14 -24 -10 -24 6 0 9 6 12 15 9 8 -4 12 -10
9 -15z m-407 -676 c-3 -10 -5 -4 -5 12 0 17 2 24 5 18 2 -7 2 -21 0 -30z
m-535 -55 c-7 -7 -12 -8 -12 -2 0 14 12 26 19 19 2 -3 -1 -11 -7 -17z m515
-263 c-6 -139 -18 -189 -48 -206 -18 -9 -19 -6 -19 45 0 30 5 58 10 61 20 12
10 45 -15 51 -52 13 -55 0 -55 -227 0 -217 -7 -252 -37 -182 -20 47 -20 70 -4
202 10 84 10 106 0 112 -18 11 -49 -8 -49 -30 0 -10 -10 -25 -22 -33 -19 -13
-24 -30 -34 -119 -7 -57 -20 -138 -29 -179 -16 -66 -19 -72 -27 -50 -11 28 -7
124 13 308 12 108 11 127 -2 150 -10 18 -23 27 -39 27 -23 0 -25 -4 -31 -65
-4 -48 -6 -54 -7 -24 -2 47 -15 57 -59 45 -36 -10 -47 -33 -69 -150 -10 -53
-20 -85 -22 -72 -5 31 13 131 48 271 16 63 30 131 32 150 2 24 9 37 23 42 11
4 116 6 234 5 l214 -2 -6 -130z m-400 -322 c-3 -10 -5 -2 -5 17 0 19 2 27 5
18 2 -10 2 -26 0 -35z m2904 -2305 c-5 -13 -19 -48 -31 -78 -21 -54 -240 -393
-348 -539 -137 -187 -351 -368 -572 -486 -68 -36 -125 -64 -127 -61 -6 6 -51
363 -62 501 -17 186 -15 252 7 259 10 3 46 39 81 78 35 40 69 76 75 79 6 4 76
14 156 23 80 10 191 26 247 36 140 27 392 112 488 164 95 52 97 52 86 24z
m-1505 -275 l282 -6 6 -151 c10 -228 35 -493 70 -744 4 -29 1 -35 -30 -49 -24
-12 -34 -23 -34 -40 0 -29 23 -39 56 -25 13 7 24 8 24 3 0 -44 44 -476 60
-581 34 -236 60 -446 60 -494 0 -54 -19 -96 -56 -125 -22 -17 -41 -21 -104
-21 -82 0 -99 9 -130 68 -6 13 -28 31 -48 40 -33 15 -37 21 -39 57 -1 22 -37
139 -81 260 -144 396 -159 457 -257 1044 -53 324 -78 510 -91 690 -7 90 -6 94
12 87 10 -5 146 -10 300 -13z m394 -23 c-17 -22 -36 -40 -41 -40 -5 0 -9 15
-9 34 0 32 3 35 33 39 17 2 36 5 40 5 5 1 -6 -16 -23 -38z m-655 -896 c29
-175 58 -339 64 -364 6 -25 11 -48 11 -52 0 -11 -47 -10 -54 0 -2 4 -10 64
-16 132 -16 186 -36 301 -76 443 -35 122 -35 128 -19 153 10 16 20 23 26 17 5
-5 34 -153 64 -329z m995 -1660 c0 -12 -3 -30 -6 -39 -9 -23 -69 -51 -139 -65
-87 -17 -135 -41 -177 -88 -47 -52 -66 -97 -78 -186 -16 -113 -45 -187 -92
-234 -45 -46 -171 -124 -246 -152 -96 -36 -343 -52 -406 -26 -54 22 -89 94
-110 224 l-6 34 50 -46 c28 -24 88 -65 133 -89 45 -24 96 -52 113 -62 20 -12
39 -16 57 -11 66 16 287 239 439 443 54 73 114 145 134 159 19 15 80 44 136
65 100 38 152 73 164 113 6 19 7 19 20 1 8 -10 14 -29 14 -41z"/>
<path d="M5558 10583 c-1 -5 -2 -98 -3 -208 -1 -230 -10 -287 -82 -508 -54
-167 -126 -337 -161 -379 -20 -23 -23 -34 -15 -47 13 -21 40 -26 59 -10 38 31
148 291 197 464 54 192 61 240 62 445 1 107 5 203 9 212 4 9 5 22 1 28 -7 11
-64 14 -67 3z"/>
<path d="M5643 10544 c-8 -22 9 -49 33 -49 30 0 27 59 -4 63 -14 2 -25 -3 -29
-14z"/>
<path d="M5701 10426 c-7 -8 -17 -75 -23 -148 -9 -111 -8 -156 6 -262 18 -142
54 -263 93 -314 21 -28 30 -33 61 -30 50 4 56 36 12 60 -90 51 -144 437 -95
676 7 29 5 32 -18 32 -13 0 -30 -6 -36 -14z"/>
</g>
</svg>
