<svg id="圖層_1" data-name="圖層 1" xmlns="http://www.w3.org/2000/svg" viewBox="0 0 690.99 365.23"><title>hero3</title><g id="o6P6pr.tif"><path d="M509.39,515.5c1.44.79,3,.55,4.48.72,1.23.13,2.55.27,2.41,1.9-.12,1.47-1.37,1.87-2.61,1.81-2.44-.12-4.88-.39-7.31-.61a301.55,301.55,0,0,0-34-1c-14.22.34-25.79,6.63-36.07,15.79a50.37,50.37,0,0,0-7.49,7.47c-1.21,1.65-2.86.09-4.33.39-1.09.23-1.36-1.11-1.33-2.22.06-2-1.57-2.18-3-2.41a221.31,221.31,0,0,0-24.55-3.08c-9-.44-17.91-1.45-26.87-1.94-11.53-.64-23.06-.51-34.59-.43-10.51.07-21,.14-31.51-.91-8.46-.85-17-1.06-25.44-2.21-1.13-.16-2.18.22-2.39,1.28s.7,1.74,1.77,2.06a46.78,46.78,0,0,0,7.24,1.22c7.35,1,14.92,0,22.13,1.5S320.38,536,327.48,536c12.77-.06,25.25,2.46,37.92,2.84,5.26.16,10.52.59,15.78.6,9.54,0,19.06.16,28.58.84,3.14.22,6.34.12,9.51.25,1.53.06,2.71.72,2.7,2.06s-1.61,1.38-2.73,1.38c-5.81,0-11.61,0-17.42-.49-9.5-.83-19.06-.36-28.58-.71-12.06-.44-24.05-1.6-36-3a89.88,89.88,0,0,0-17.9-.84,98.46,98.46,0,0,1-26-1.77c-7-1.32-13.88-.94-20.81,0a5.76,5.76,0,0,1-.81.15c-5.15-.1-10.27.38-15.41.67-4.31.24-5.47-1.55-4.41-5.79.17-.7.34-1.41.52-2.11,1-3.58-.77-5.39-4.53-4.61-9.06,1.86-18.1,3.85-27.17,5.68-15.68,3.15-31.45,5.54-47.54,4.69-15.12-.81-28.8-5.41-40.59-15.12-8.38-6.9-11.55-16.46-13.51-26.6a125.47,125.47,0,0,1-1.72-21.12c-.09-4.53-.29-9.06-.34-13.6,0-1.15-.18-1.68-1.47-1.49-5.25.8-10.34,2-14.6,5.45a7.16,7.16,0,0,0-2.12,3.09,1.74,1.74,0,0,1-2.41,1.13,1.94,1.94,0,0,1-1.22-2.45c3.61-14.19,4.39-28.8,6.54-43.21a105.24,105.24,0,0,0-.43-34.92c-.27-1.46-.08-2.68,1.55-2.88s1.71,1.05,1.93,2.32c2.85,16.69,1.29,33.24-1.28,49.78-1.15,7.42-2,14.87-3.07,22.81,9-5.32,18.88-4.85,28.21-6.88a125.55,125.55,0,0,0,32.13-11.61c1.76-.93,2-2.58,2.3-4.08,1.72-8,3.59-15.94,4.87-24,3.18-20,5.28-40.06,7.64-60.13.54-4.58.45-9.24.64-13.86a12,12,0,0,1,.42-3.76c.41-1.12,1.08-2,2.3-2s1,1.36,1.09,2.16a5.57,5.57,0,0,0,.94,2.22C189,349.66,200,358.72,213.53,365c9.87,4.61,18.21-3,21-9.93a2.29,2.29,0,0,0,0-1.85A56.48,56.48,0,0,0,229,343.09c-1.61,5.1-6,5.51-9.92,6.23s-7.56-.54-11-2.45c-8-4.47-15-10.22-21.77-16.25-1.11-1-2-2.1-3.93-1.92-1.55.15-2.34-1.19-1.47-2.61,4.18-6.76,5.42-14.55,7.8-21.94,1.14-3.53,1.87-7.19,2.85-10.77.45-1.64.75-3.45,3-3.78,1-.15.64-.92.5-1.49-2.31-9.56-2.16-19.45-3.93-29.08-.2-1.06-.2-2.09,1-2.53,1.36-.52,1.9.54,2.47,1.51,1.31,2.24.78,4.65.9,7a145.3,145.3,0,0,0,1.64,14.85,131.38,131.38,0,0,0,3.8,17c3.18,10.86,16.4,20.32,27.47,19.39,3-.25,5.73-2.24,8.14-4.11,4.39-3.37,8.64-6.93,12.81-10.57,5.59-4.88,8.52-11.43,10.89-18.25,2.61-7.55,4.48-15.31,6.4-23a5.49,5.49,0,0,0-.05-2.67,2.25,2.25,0,0,1,2.2-2.82c1.86-.21,2,1.35,1.73,2.63-2.88,13.1-5.42,26.31-11.83,38.31a24.87,24.87,0,0,1-5.46,7.09c-6.31,5.56-12.14,11.77-20,15.26-.32.14-.82.42-.82.62.11,5.15-2.7,9.72-2.78,14.88a12.6,12.6,0,0,0,1.71,6.6c1.07,1.89,2.26,3.72,3.41,5.56.29.46.56,1.14,1,1.25,1.24.35,2.58.5,3,1.94a8.65,8.65,0,0,1,0,5.37c-2.49,7.35-7.11,12.77-14.73,15.23-3.94,1.28-7.76.56-11.4-1-10.28-4.53-26-14.65-32.85-28.64-.24,3.19-.43,5.9-.66,8.61-2.45,29-5.55,57.9-12,86.34-.4,1.79,1.23,2.8.64,4.53s-3.1,5-5,4.92a8.94,8.94,0,0,0-5.07,1.64c-8.79,5-18.47,7.43-28.22,9.66-2.5.57-5.3-.63-7.63,1.24-.45.36-1.13.3-1.14,1.23-.14,13.41-.08,26.77,2.85,40,3.27,14.82,13.19,23.33,26.33,28.94,12,5.11,24.57,6.06,37.39,5.23,20.09-1.31,39.64-5.87,59.16-10.37,4.66-1.08,9.52-1.3,13.94-2.81,11.54-3.94,23.52-3.54,35.37-4.57,2.89-.25,5.74-.89,8.63-1.07,6.81-.41,13.25,1.84,19.84,3,3.7.65,7.35,1.68,11.5,1.55-.89-1.72-2.27-2.45-3.47-3.33-6.16-4.53-13.47-5.51-20.73-6.66a42.73,42.73,0,0,0-7.32-.46c-1.1,0-2.05-.28-2.05-1.61s.79-1.77,1.94-1.78c12.88-.1,25.56.69,37.06,7.52,2.72,1.61,5.71,2.76,8.58,4.1a3.83,3.83,0,0,0,3,.31c-.28-1.53-1.59-2.19-2.68-2.74-3.72-1.86-6.7-4.65-9.68-7.44a28.76,28.76,0,0,0-20.4-8.23,53.94,53.94,0,0,1-8.87-1.24c-1.13-.2-2.18-.78-1.82-2.2.32-1.26,1.41-1.28,2.44-1.06,5.34,1.14,10.85,1,16.19,1.88s10.13,3.9,14.24,7.59c3.56,3.2,7.12,6.37,12,8.61-2.52-4.31-4.62-8.28-8.84-10.74a94.38,94.38,0,0,0-17-7.27c-3.86-1.32-7.75-2.52-11.62-3.81a9.53,9.53,0,0,1-2-.87c-1-.64-1.61-1.6-.87-2.74s1.64-.79,2.65-.3c3.74,1.8,7.8,2.68,11.79,3.81-5.34-3.82-10.54-7.76-17.57-8s-14,.34-20.65,2.68a18.09,18.09,0,0,0-3.63,1.81c-1.72,1.1-2.57,2.33-1.68,4.71,2,5.41-.58,8.23-6.33,7.28-4.54-.76-8.66-2.66-12.71-4.71a8.5,8.5,0,0,0-4.16-1c-9.8.26-19.61.56-29.41.67-17.57.19-35.15.32-52.6-2.24a56.74,56.74,0,0,1-20.52-6.87c-5.79-3.35-9.45-7.61-9.61-14.78-.1-5-.53-9.95-.5-14.94,0-1.38,0-3.06,1.89-3,1.69.08,1.81,1.85,1.65,3-.83,5.83.38,11.58.52,17.36.07,3.25,1.44,5.3,4.28,7.23,10.6,7.23,22.61,9,34.92,9.78,10.87.71,21.76,1,32.66,1.15,2.1,0,3-.49,3.41-2.69.82-4.82,2-9.58,3-14.38.22-1.09.73-2.21-.23-3.35-.77-.9.25-1.37.83-1.92,2.22-2.15,5.09-3.19,7.84-4.25,7.35-2.82,14.81-5.35,22.22-8,1-.37,2.22-.89,2.91.33s-.35,2.17-1.35,2.83a17.57,17.57,0,0,1-4.78,1.93A227.42,227.42,0,0,0,237.31,468a3.4,3.4,0,0,0-2.37,2.89c-1,5.53-2.13,11-3.26,16.53-.23,1.09-.54,2,1.15,1.87,8-.68,16.16,0,24.18-.89.24-.8-.39-1-.76-1.34-5.6-4.81-8.77-11-10.32-18.1-.33-1.49-.7-3.09,1.36-3.42s1.66,1.36,1.93,2.69C251,477.07,255.85,483.79,264,488a4,4,0,0,0,1.84.3c3.73,0,7.45-.1,11.17-.1,2.27,0,3.93-.43,5.21-2.8,1.57-2.91,4.82-4,7.86-5a58.11,58.11,0,0,1,30.1-1.18c1.84.39,2,2.3,3.61,3.06,5,2.38,9.42,5.72,14.06,9.27.51-1.69,1.26-3.2-.42-4.63a1.56,1.56,0,0,1-.49-2.16,1.92,1.92,0,0,1,2.37-.82,17,17,0,0,1,6.68,2.95c3.69,2.92,7.27,6,10.83,9.1a18.52,18.52,0,0,1,4,5.46,21.06,21.06,0,0,0,6.56,7.41,9.79,9.79,0,0,0-1.26-5c-3.56-6.11-7-12.31-11.79-17.59-2.57-2.83-4.76-5.95-7-9-2.78-3.73-5.54-4.42-9.64-2.16-2.44,1.35-4.71.62-7.2.55-7.41-.21-14.16-2.86-21.1-4.78-7.65-2.12-15-5.07-20.92-10.6a1.9,1.9,0,0,0-2.44-.23,34.66,34.66,0,0,1-7.2,2.42c-2.13.46-3.94.28-4.9-2.15-.62-1.55-1.84-1.87-3.29-.91-.22.15-.46.29-.69.43-1.12.68-2.4,1.46-3.25-.15s.55-2.21,1.68-2.84,2.32-1.45,3.55-2a2.15,2.15,0,0,0,1.43-2.54c-2.24-18.28-1-36.8-3.8-55.05-1.56-10.12-3.7-20-9.27-28.78a97.15,97.15,0,0,1-5.71-9.5,13.2,13.2,0,0,1-.68-1.48c-.35-1.11-.42-2.24.9-2.76s1.84.37,2.35,1.29c.94,1.7,1.46,3.67,3.21,5.3.45-3,.79-5.76,1.28-8.47,1.53-8.52,5.22-16.2,9.36-23.68,6.86-12.4,13.47-24.93,17.09-38.72,6.36-24.27,3.29-47.55-7.43-70.12-6.47-13.6-15.55-24.52-28.77-32-9-5.11-18.2-7.09-28.47-5.16-6.7,1.26-13.23,3.1-19.71,5-9.73,2.84-16.29,10.27-22.53,17.7a161.55,161.55,0,0,0-34.85,70.78c-2.58,11.94-6.19,23.67-9.33,35.49A36.88,36.88,0,0,1,120,334.57c-1.14.71-2.42,1.47-3.36.11s.18-2.48,1.42-3.22c8.88-5.32,13.71-13.37,16.18-23.23,4.07-16.18,7.7-32.51,12.76-48.39,8.69-27.27,23.17-51.14,45.13-70,3-2.59,6.9-3.94,10.66-5.29a99.41,99.41,0,0,1,17.24-4.95c12.41-2.07,24.15-.58,35.17,6.41a74.56,74.56,0,0,1,26.53,28.51,111.2,111.2,0,0,1,13.17,50.57c.4,18.06-5,34.69-12.85,50.64-3.77,7.64-7.92,15.09-11.8,22.68A63.75,63.75,0,0,0,264.06,360a22.29,22.29,0,0,0,2.21,11.77c3.85,8.58,5.74,17.54,7,26.73a318.32,318.32,0,0,1,2.27,37.17c.08,5,.73,9.94,1.13,14.91.11,1.42.54,2.06,2.24,1.5a14.3,14.3,0,0,1,9.36-.22c2.11.75,3.48,2.14,2.49,4.57-.54,1.31.28,1.8,1.06,2.43,4.95,4,10.75,6.38,16.77,8.18q8.73,2.61,17.61,4.71c4.81,1.14,9.56-.1,14.27-1a7.37,7.37,0,0,1,6.19,1.18,2.76,2.76,0,0,0,2,.61,6.36,6.36,0,0,1,1.9.1c5.68,1.37,10.62,4.58,15.68,7.2s9.31,7.21,12.49,12.29a3.32,3.32,0,0,0,2.76,1.86c9.69.58,19.24,2.33,28.87,3.5,3.24.39,6.48.76,9.72,1.17a2.59,2.59,0,0,0,3.14-1.67,224.45,224.45,0,0,0,10.37-26c7.88-22.77,14.29-46.1,25-67.82,2-4.06,4.22-8,6.29-12.05,1.48-2.87,3.38-5.56,3.91-8.85.3-1.83,1.28-2.33,3.1-2,5.62,1.1,11.35,1.2,17,1.75,3.44.33,4.69,1.6,3.91,4.95-1.31,5.64-2.57,11.26-5.19,16.55-5.14,10.42-8.65,21.51-12.78,32.34-8,21-15.69,42.14-25.22,62.53a68.71,68.71,0,0,1-4.69,8.59c-5.24,8-8.47,17-12.56,25.73,3.53-3.51,7.77-6,11.72-8.88,8.06-5.91,17.09-8.47,26.95-9,5.45-.26,10.93-.07,16.31-.56,3.47-.31,7-1.27,10.51-1.62,9.21-.91,18.43-1.59,27.67-2.14,11.06-.66,22.13-1.15,33.21-.87,21.33.54,42.65,1.41,64,1.94,12.61.32,25.21,1,37.8,1.75,9,.51,17.92,1.16,26.88,1.79,1.31.09,3.15-.05,3.13,1.81s-1.83,2-3.31,1.86c-8.78-.57-17.56-1.12-26.34-1.77-10-.73-19.92-1.24-29.9-1.59-23.5-.82-47-1.75-70.51-2.11A436.06,436.06,0,0,0,509.39,515.5Zm-171.21-1a24.74,24.74,0,0,1,1.39,2.35c1.24,2.95,0,4.75-3.17,4.81a40.51,40.51,0,0,1-6.5-.45c-6.45-1-12.72-2.8-19.34-2.9-8.72-.13-17.42.59-26.12.48-9-.1-17.39,2.32-25.94,4.28-.58.13-1.38.09-1.41,1s.71,1.16,1.41,1.4c1.89.65,3.76,1.33,5.67,1.92,1.59.49,3.39,1.79,4.32-1,.18-.5,1-.59,1.48-.43,2.57.78,5.22.43,7.84.61,12.84.88,25.68,2,38.57,2,9.08,0,18.16-.53,27.23-.47a547.22,547.22,0,0,1,75.11,5.4c1.95.28,2.62-.11,2.93-2.2,1.31-8.91,1.08-17.9,1.42-26.86.05-1.32-.32-1.94-1.75-2.09q-5.69-.58-11.33-1.45c-8.58-1.28-17.23-2.13-25.75-3.84-.83-.17-1.84-.32-2.33.23s0,1.56.39,2.26,1,1.3,1.38,2c1.18,2.15.67,4.4-1.52,4.87-2.46.53-2.08,1.92-1.94,3.56s.47,3.2-1.38,4-3.1-.24-4.38-1.35-1.81-2.6-3.45-3.29c-.17,1.26-.15,2.38-.87,3.29-1.07,1.36-2.28,1.83-3.7.57-3.12-2.77-6.43-5.44-8.31-9.27-3.22-6.6-9.47-10.1-14.67-14.69-.37-.33-1.13-.85-1.38-.37-.78,1.41-.68,3.11-1.38,4.63-.28.6,1.14,1,1.83,1.34,4.18,2.19,8.47,4.23,11.16,8.4q3,4.68,6.12,9.33a6.57,6.57,0,0,1,1.21,4.63c-.28,2-1.61,2.71-3.12,1.38-.8-.7-1.06-.53-1.71,0-2.52,2-5.25,1.71-8,.52C345,517.69,341.84,516.18,338.18,514.49ZM472.37,384.28c-.85,1.59-1.47,2.79-2.12,4a300.92,300.92,0,0,0-21.07,47.66C442,456.7,436.2,478,427,498a3.71,3.71,0,0,0-.31,2.38c1.3,6.18.95,12.45,1,18.7,0,4.16,0,8.32,0,12.31.12-.23.37-.69.58-1.17,4.19-9.45,6.93-19.45,10.94-29,8.89-21.13,19.06-41.68,27.79-62.88,5-12.16,8.56-24.84,13.76-36.92a18.69,18.69,0,0,0,1.24-6.65c.25-5.77-.57-6.88-6.25-8.28C474.34,386.24,473,386.12,472.37,384.28ZM217.11,345.76c5.35,0,8.31-3,8.72-8.06s.88-10.31,2.58-15.23c.68-2,.31-2.41-1.83-2.64-15.18-1.66-25.58-9.31-29.87-24.38-.17-.61,0-1.64-1.14-1.52s-1,1.2-1.19,1.91A284.79,284.79,0,0,1,186.25,324c-.2.57-.74,1.35,0,1.7,1.77.85,2.19,2.87,3.65,4,6.06,4.45,11.77,9.4,18.28,13.21C211,344.53,214,345.94,217.11,345.76ZM351.16,476.53c.61.87,1,1.55,1.52,2.14a129.57,129.57,0,0,1,15.35,21c2,3.56,5.59,5.64,8.14,9.42a7,7,0,0,0-1.35-4.73c-5.9-7.75-10.14-16.66-16.92-23.81C356,478.59,354.2,477,351.16,476.53Zm-78.93,56.94c-4.45-1.38-8.24-2.49-12-3.73-4.14-1.37-4.78-1-5.19,3.47-.09,1,.13,1.33,1.07,1.36A95.94,95.94,0,0,0,272.23,533.47Zm91.91-51c1.69,2.31,3.95,4.12,5.19,6.75,2.3,4.87,5.55,9.11,8.8,13.36.47.62.82,1.32,1.67.74s.23-1.13-.05-1.67a83.63,83.63,0,0,0-4.61-8.62C372.24,488.77,368.29,485.49,364.14,482.46Zm120.91-82.73c2.43-4,3-8.63,4.22-13.08.17-.64-.09-1.12-.76-1.13-2.11,0-4.18-.82-6.43-.49C485.69,389.1,486.1,391.35,485.05,399.73Zm-29.41,74.46a200.43,200.43,0,0,0-12.57,28.45A186.49,186.49,0,0,0,455.64,474.19ZM285.4,454.77c-2.5-.46-4.62.32-6.79.89-1.23.33-1.12,1.21-1,2.13.07.52,0,1,.85,1.08C280.31,459,284.39,456.76,285.4,454.77Zm-12.5,36.9-.11.65c2.32.83,4.57,1.89,7.12,2,.95,0,2.39.15,2.42-1s-1.24-1.62-2.42-1.62Z" transform="translate(0.44 -178.75)"/><path d="M176.06,326.73c-5-4.38-11-4.59-17-3.56-14.94,2.57-26.2,11.26-36.12,22.24-9,10-14.53,22.33-22.69,32.89-6.69,8.66-11,18.51-14,29-2.15,7.58-3.89,15.28-6,22.88-3.51,12.66-7.34,25.23-12,37.53-3.48,9.12-4.63,18.8-6.45,28.32-.79,4.09-1.46,8.21-2.44,12.25-.39,1.62,0,1.88,1.44,1.86,8.57-.09,17,1.21,25.38,2.79,1.38.26,3,.22,3.67,1.87a1.54,1.54,0,0,1-.65,1.91c-1.35.94-2.7.52-4.13,0-5-1.73-10.29-2.26-15.51-2.62-12.7-.89-25.4,0-38.08.73-7.08.38-14.17.13-21.25.32-1.89,0-4-.58-5.31,2-.79,1.54-2.38-.13-3.55-.62s-2.12-1.23-1.72-2.68c.35-1.25,1.44-1.51,2.59-1.55,4.53-.19,9.07-.5,13.6-.53,12.44-.07,24.83-1.17,37.26-1.57,1.44,0,2-.66,2.41-1.95,1.86-5.54,2.41-11.34,3.45-17A183.61,183.61,0,0,1,67.15,460C73.5,442.88,78,425.2,82.46,407.53a87.65,87.65,0,0,1,15.25-31.94,164.51,164.51,0,0,0,10.13-15.47c7.58-12.69,16.92-23.9,29.35-32.07,8.43-5.54,17.79-9,28.17-8.56a18.33,18.33,0,0,1,9.69,3.23C177,324.06,177.12,324.94,176.06,326.73Z" transform="translate(0.44 -178.75)"/><path d="M230.35,218.51c-5.9,12.82-15.77,22-26.18,30.74-2.27,1.9-4.81,3.53-6.44,6.16a2.13,2.13,0,0,1-3.14.57c-1.25-.84-1.07-2.09-.23-3.09a28.72,28.72,0,0,1,3.11-3c7.18-6.25,14.78-12,20.93-19.4A61.14,61.14,0,0,0,225.64,220a11.36,11.36,0,0,0,1.63-4.27,3.34,3.34,0,0,1,2.26-2.84c1.13-.4,1.9.23,2.26,1.35.28.86.87.41,1.31.25,4.2-1.49,7.21.49,9.83,3.41,3.76,4.21,6.53,9.15,9.79,13.72,3.54,4.93,6.76,10.1,10.83,14.64,3.21,3.57,4,3.56,7.41.3l.39-.37c1.08-1,2.16-2.87,3.79-1.39s-.06,2.89-1.05,4.12a8.06,8.06,0,0,1-.8.74c-5,4.6-7.68,4.58-12.34-.56-5.92-6.55-10.41-14.16-15.39-21.4-2-2.91-3.75-6-6.38-8.44-1.31-1.22-2.71-2.14-4.64-1.34,0,1.31,1.65,3.06-.53,3.74S231.54,220,230.35,218.51Z" transform="translate(0.44 -178.75)"/><path d="M246.06,402.63c0,13.19-3.72,23.33-8.64,33.13a169.58,169.58,0,0,1-9.82,16.92,8.94,8.94,0,0,0-1.9,4.12,2.17,2.17,0,0,1-2.81,1.88c-1.65-.38-1.73-1.75-1.36-3a9.81,9.81,0,0,1,1.31-2.36c7.42-11.32,14.38-22.88,18-36.09,2.45-8.94,2.73-17.89-.65-26.69-.8-2.07-1.44-4.34-4.05-5.07-1.07-.31-1.22-1.32-.89-2.25.43-1.2,1.51-1.28,2.5-1,2,.64,3.21,2.33,4.17,4.09A36.05,36.05,0,0,1,246.06,402.63Z" transform="translate(0.44 -178.75)"/></g></svg>