<?xml version="1.0" standalone="no"?>
<!DOCTYPE svg PUBLIC "-//W3C//DTD SVG 20010904//EN"
 "http://www.w3.org/TR/2001/REC-SVG-20010904/DTD/svg10.dtd">
<svg version="1.0" xmlns="http://www.w3.org/2000/svg"
 width="128" height="60" class="fill-gray-900 dark:fill-gray-100" viewBox="0 0 300.000000 140.000000"
 preserveAspectRatio="xMidYMid meet">

<g transform="translate(0.000000,140.000000) scale(0.100000,-0.100000)"
fill="#000000" stroke="none">
<path d="M1173 1318 c-20 -22 -43 -61 -43 -72 0 -16 31 -2 69 30 33 29 39 39
30 50 -16 20 -32 17 -56 -8z"/>
<path d="M1643 1318 c-20 -22 -43 -61 -43 -72 0 -16 31 -2 69 30 33 29 39 39
30 50 -16 20 -32 17 -56 -8z"/>
<path d="M1147 1153 c-3 -5 -8 -62 -12 -128 -6 -112 -5 -122 13 -138 26 -24
59 -15 111 30 67 57 50 86 -22 37 -46 -31 -71 -26 -63 13 14 65 22 163 14 178
-9 16 -34 20 -41 8z"/>
<path d="M1617 1153 c-3 -5 -8 -62 -12 -128 -6 -112 -5 -122 13 -138 26 -24
59 -15 111 30 67 57 50 86 -22 37 -46 -31 -71 -26 -63 13 14 65 22 163 14 178
-9 16 -34 20 -41 8z"/>
<path d="M1904 1149 c-62 -18 -97 -74 -78 -124 6 -14 95 -65 115 -65 4 0 20
-5 36 -11 37 -14 17 -25 -59 -34 -48 -6 -63 -4 -78 10 -23 21 -50 13 -50 -14
0 -30 30 -41 110 -41 79 0 133 18 150 50 18 33 -17 64 -98 85 -74 19 -98 35
-89 59 9 24 77 48 115 41 24 -4 34 -2 38 10 15 38 -40 55 -112 34z"/>
<path d="M1357 1134 c-3 -3 -4 -34 -2 -68 3 -33 7 -92 9 -130 3 -38 10 -74 15
-79 15 -15 43 12 37 35 -15 58 80 193 140 200 18 2 30 10 32 21 10 51 -126 -9
-159 -70 -13 -25 -14 -24 -24 33 -7 40 -15 60 -25 62 -9 1 -19 0 -23 -4z"/>
<path d="M291 734 c-21 -34 -29 -89 -13 -82 18 7 82 87 82 102 0 32 -46 19
-69 -20z"/>
<path d="M2393 716 c-32 -42 -41 -66 -25 -66 8 0 102 70 102 76 0 6 -32 34
-38 34 -4 0 -22 -20 -39 -44z"/>
<path d="M1777 714 c-4 -4 -7 -43 -7 -86 0 -43 -3 -78 -7 -78 -5 0 -17 7 -27
15 -24 18 -76 19 -112 3 -36 -16 -73 -101 -81 -182 -5 -56 -3 -65 20 -91 l26
-30 38 20 c21 11 58 46 83 77 l45 57 7 -42 c10 -56 27 -87 49 -87 25 0 35 38
14 53 -13 10 -15 28 -14 92 6 237 4 280 -11 283 -9 1 -19 0 -23 -4z m-49 -197
c18 -14 15 -39 -11 -69 -12 -15 -30 -39 -41 -54 -21 -29 -76 -65 -88 -58 -4 3
-8 14 -8 25 0 29 39 146 53 157 26 21 67 21 95 -1z"/>
<path d="M1154 645 c-4 -9 -4 -36 -1 -60 4 -44 4 -45 -25 -45 -25 0 -29 -4
-26 -22 2 -15 11 -24 26 -26 20 -3 22 -9 22 -63 0 -71 19 -113 60 -134 36 -19
70 -12 101 21 19 21 21 27 9 34 -9 5 -21 3 -34 -6 -27 -18 -60 -18 -76 1 -7 9
-14 44 -14 78 l-1 61 68 11 c72 12 83 18 72 34 -4 7 -31 10 -70 7 l-64 -4 -3
62 c-2 49 -7 61 -21 64 -9 2 -20 -4 -23 -13z"/>
<path d="M2583 649 c-7 -7 -10 -30 -6 -60 6 -47 5 -49 -19 -49 -14 0 -28 -3
-31 -6 -11 -11 13 -44 33 -44 16 0 18 -8 18 -64 -2 -70 13 -103 57 -132 20
-13 30 -14 59 -4 41 13 60 34 52 56 -6 15 -8 15 -31 0 -59 -39 -98 -2 -93 86
l3 53 61 11 c33 6 66 14 72 18 26 16 -2 26 -64 22 l-64 -4 0 48 c0 74 -17 99
-47 69z"/>
<path d="M299 565 c-12 -12 -13 -31 -7 -98 4 -45 6 -134 5 -198 -2 -99 -5
-120 -21 -138 -32 -36 -70 -25 -139 37 -21 20 -30 23 -39 14 -9 -9 0 -23 39
-61 79 -76 142 -78 189 -6 24 37 27 429 3 451 -13 12 -17 12 -30 -1z"/>
<path d="M920 559 c-95 -38 -93 -127 4 -168 28 -11 59 -21 67 -21 9 0 22 -6
28 -14 10 -12 7 -15 -16 -20 -89 -17 -102 -18 -125 -2 -23 17 -58 22 -58 8 0
-10 -93 -2 -107 10 -18 15 -16 75 4 131 15 42 15 49 3 57 -23 15 -25 13 -49
-37 -20 -45 -136 -157 -158 -154 -4 1 -8 45 -8 99 0 91 -1 97 -21 100 -20 3
-21 -3 -28 -96 -7 -106 2 -147 35 -157 25 -8 68 16 112 64 35 38 65 47 53 16
-3 -8 5 -29 17 -47 27 -39 74 -49 114 -23 23 15 26 15 38 -1 19 -26 141 -32
198 -10 50 19 72 48 58 75 -11 20 -37 32 -124 56 -66 19 -79 37 -48 68 17 17
33 22 76 21 57 0 77 15 54 42 -13 16 -82 18 -119 3z"/>
<path d="M2018 562 c-56 -7 -110 -110 -112 -213 -1 -55 16 -79 57 -79 84 0
168 81 169 164 2 71 -56 135 -114 128z m47 -68 c31 -34 33 -91 5 -126 -25 -33
-85 -61 -111 -53 -17 6 -19 12 -13 43 4 20 11 48 16 62 12 34 59 100 70 100 5
0 20 -12 33 -26z"/>
<path d="M2366 449 c-6 -102 -4 -125 9 -146 19 -29 40 -25 105 21 79 56 56 94
-24 40 -50 -35 -61 -23 -47 52 6 32 11 79 11 106 0 44 -2 48 -23 48 -23 0 -24
-3 -31 -121z"/>
<path d="M2822 338 c-26 -26 1 -65 37 -53 26 8 33 31 15 50 -19 18 -36 19 -52
3z"/>
</g>
</svg>
